HIERARCHY
ROOT joint_Root
{
	OFFSET 0.0 0.0 0.0
	CHANNELS 6 Xposition Yposition Zposition Zrotation Xrotation Yrotation 
	JOINT Hips
	{
		OFFSET 4.5925 91.4895 -427.239
		CHANNELS 6 Xposition Yposition Zposition Zrotation Xrotation Yrotation 
		JOINT Spine
		{
			OFFSET 15.7357 0.0 0.0
			CHANNELS 6 Xposition Yposition Zposition Zrotation Xrotation Yrotation 
			JOINT Chest
			{
				OFFSET 8.98455 -0.406207 0.0
				CHANNELS 6 Xposition Yposition Zposition Zrotation Xrotation Yrotation 
				JOINT Neck
				{
					OFFSET 16.3773 0.0 0.0
					CHANNELS 6 Xposition Yposition Zposition Zrotation Xrotation Yrotation 
					JOINT Head
					{
						OFFSET 6.45672 0.0 0.0
						CHANNELS 6 Xposition Yposition Zposition Zrotation Xrotation Yrotation 
						End Site
						{
							OFFSET 0.0 0.0 0.0
						}
					}
				}
				JOINT Shoulder_L
				{
					OFFSET 12.9942 -0.242716 4.98039
					CHANNELS 6 Xposition Yposition Zposition Zrotation Xrotation Yrotation 
					JOINT UpperArm_L
					{
						OFFSET 5.34809 0.0 0.0
						CHANNELS 6 Xposition Yposition Zposition Zrotation Xrotation Yrotation 
						JOINT LowerArm_L
						{
							OFFSET 24.3286 1.87007e-05 0.0
							CHANNELS 6 Xposition Yposition Zposition Zrotation Xrotation Yrotation 
							JOINT Hand_L
							{
								OFFSET 22.2916 0.0 0.0
								CHANNELS 6 Xposition Yposition Zposition Zrotation Xrotation Yrotation 
								End Site
								{
									OFFSET 0.0 0.0 0.0
								}
							}
						}
					}
				}
				JOINT Shoulder_R
				{
					OFFSET 12.9945 -0.242716 -4.98039
					CHANNELS 6 Xposition Yposition Zposition Zrotation Xrotation Yrotation 
					JOINT UpperArm_R
					{
						OFFSET -5.34813 0.0 0.0
						CHANNELS 6 Xposition Yposition Zposition Zrotation Xrotation Yrotation 
						JOINT LowerArm_R
						{
							OFFSET -24.3289 0.000322201 0.0
							CHANNELS 6 Xposition Yposition Zposition Zrotation Xrotation Yrotation 
							JOINT Hand_R
							{
								OFFSET -22.2915 -0.000108084 0.0
								CHANNELS 6 Xposition Yposition Zposition Zrotation Xrotation Yrotation 
								End Site
								{
									OFFSET 0.0 0.0 0.0
								}
							}
						}
					}
				}
			}
		}
		JOINT UpperLeg_L
		{
			OFFSET -2.19248 -6.46944 0.0
			CHANNELS 6 Xposition Yposition Zposition Zrotation Xrotation Yrotation 
			JOINT LowerLeg_L
			{
				OFFSET 39.0811 0.0 -1.23785e-05
				CHANNELS 6 Xposition Yposition Zposition Zrotation Xrotation Yrotation 
				JOINT Foot_L
				{
					OFFSET 40.9854 0.0 -1.26872e-05
					CHANNELS 6 Xposition Yposition Zposition Zrotation Xrotation Yrotation 
					JOINT Toes_L
					{
						OFFSET 11.7543 0.0 0.0
						CHANNELS 6 Xposition Yposition Zposition Zrotation Xrotation Yrotation 
						End Site
						{
							OFFSET 0.0 0.0 0.0
						}
					}
				}
			}
		}
		JOINT UpperLeg_R
		{
			OFFSET -2.19251 6.46944 0.0
			CHANNELS 6 Xposition Yposition Zposition Zrotation Xrotation Yrotation 
			JOINT LowerLeg_R
			{
				OFFSET -39.0811 -0.00228153 -0.0401928
				CHANNELS 6 Xposition Yposition Zposition Zrotation Xrotation Yrotation 
				JOINT Foot_R
				{
					OFFSET -40.9854 0.0 0.0
					CHANNELS 6 Xposition Yposition Zposition Zrotation Xrotation Yrotation 
					JOINT Toes_R
					{
						OFFSET -11.7543 0.0 0.0
						CHANNELS 6 Xposition Yposition Zposition Zrotation Xrotation Yrotation 
						End Site
						{
							OFFSET 0.0 0.0 0.0
						}
					}
				}
			}
		}
	}
}
MOTION
Frames:	6
Frame Time:	0.0333333
0.000000 0.000000 0.000000 0.000000 0.000000 -0.000000 0.699431 83.027200 1.709570 90.109400 -1.315600 12.710200 15.735700 0.000005 -0.000001 96.585800 81.691900 -96.471800 8.984550 -0.406207 -0.000000 8.742290 1.897200 0.082697 16.377300 -0.000001 -0.000001 -0.091305 -4.917400 1.362530 6.456720 -0.000001 -0.000000 -2.854540 -7.592080 4.334660 12.994200 -0.242716 4.980390 -91.093800 3.143390 -70.800700 5.348090 -0.000007 -0.000001 -60.264700 24.853400 -18.084700 24.328600 0.000019 0.000005 5.729510 19.571200 -16.682600 22.291600 -0.000001 0.000005 6.144650 5.389340 -2.611510 12.994500 -0.242716 -4.980390 88.643300 7.427460 -79.617500 -5.348130 -0.000001 -0.000004 -63.842700 32.507800 -9.969600 -24.328900 0.000322 -0.000009 -0.809106 -2.229910 -19.914900 -22.291500 -0.000108 -0.000004 20.555000 5.426720 -3.826900 -2.192480 -6.469440 -0.000000 -175.271000 -12.057300 -9.469590 39.081100 -0.000007 -0.000012 -0.351479 0.212870 58.800000 40.985400 -0.000006 -0.000013 2.674690 5.214020 -86.555800 11.754300 -0.000000 0.000003 -0.000344 -0.002919 -16.685800 -2.192510 6.469440 -0.000001 173.185000 14.496100 170.155000 -39.081100 -0.002282 -0.040193 0.084247 -0.047227 59.769500 -40.985400 0.000008 0.000006 5.361140 4.586020 -85.786300 -11.754300 -0.000006 -0.000006 -0.834648 -1.025600 -17.258400
0.000000 0.000000 0.000000 0.000000 0.000000 -0.000000 1.010460 85.424600 2.617690 90.570800 -2.988840 12.134900 15.735700 0.000005 -0.000001 97.664000 82.780200 -96.808600 8.984550 -0.406207 -0.000000 6.533680 1.910640 1.600110 16.377300 -0.000001 -0.000001 2.175150 -4.028980 0.844434 6.456720 -0.000001 -0.000000 -1.709220 -6.189930 1.981190 12.994200 -0.242716 4.980390 -90.514800 1.409730 -69.928400 5.348090 -0.000007 -0.000001 -53.316900 20.271700 -20.364000 24.328600 0.000019 0.000005 5.061540 21.740400 -13.445800 22.291600 -0.000001 0.000005 5.773220 5.376300 -2.189470 12.994500 -0.242716 -4.980390 88.687600 6.682260 -78.860900 -5.348130 -0.000001 -0.000004 -66.032300 29.952800 -7.618710 -24.328900 0.000322 -0.000009 -0.611712 -1.858930 -18.190500 -22.291500 -0.000108 -0.000004 21.270900 5.460670 -5.020250 -2.192480 -6.469440 -0.000000 -175.579000 -13.839400 -5.192720 39.081100 -0.000007 -0.000012 -0.296538 0.241845 50.801400 40.985400 -0.000006 -0.000013 2.508890 5.423510 -83.319600 11.754300 -0.000000 0.000003 -0.000246 -0.002202 -16.660100 -2.192510 6.469440 -0.000001 172.496000 13.953800 173.444000 -39.081100 -0.002282 -0.040193 0.057160 -0.041315 52.541100 -40.985400 0.000008 0.000006 5.310180 6.290260 -82.330800 -11.754300 -0.000006 -0.000006 -0.665767 -0.814371 -17.669500
0.000000 0.000000 0.000000 0.000000 0.000000 -0.000000 1.131650 87.649900 3.135250 90.871100 -4.337140 10.386100 15.735700 0.000005 -0.000001 101.704000 84.199300 -100.101000 8.984550 -0.406207 -0.000000 3.566510 2.291810 3.132050 16.377300 -0.000001 -0.000001 4.449220 -3.425870 0.357905 6.456720 -0.000001 -0.000000 0.060311 -5.130400 -0.754693 12.994200 -0.242716 4.980390 -89.779400 -0.588060 -69.438300 5.348090 -0.000007 -0.000001 -45.845700 4.986460 -24.993400 24.328600 0.000019 0.000005 3.760670 19.238400 -11.281400 22.291600 -0.000001 0.000005 6.885750 5.311640 -0.259515 12.994500 -0.242716 -4.980390 88.759600 5.791900 -77.890100 -5.348130 -0.000001 -0.000004 -67.119800 26.928500 -5.011930 -24.328900 0.000322 -0.000009 -1.127930 -3.478660 -17.962600 -22.291500 -0.000108 -0.000004 21.218100 5.515580 -7.180420 -2.192480 -6.469440 -0.000000 -176.182000 -15.127400 -2.404100 39.081100 -0.000007 -0.000012 -0.232072 0.253834 42.436200 40.985400 -0.000006 -0.000013 2.065380 5.342380 -79.473800 11.754300 -0.000000 0.000003 -0.000159 -0.001529 -16.635600 -2.192510 6.469440 -0.000001 172.176000 14.571600 175.458000 -39.081100 -0.002282 -0.040193 0.033797 -0.030520 45.012800 -40.985400 0.000008 0.000006 5.216100 8.626370 -78.481200 -11.754300 -0.000006 -0.000006 -0.483206 -0.595512 -18.069100
0.000000 0.000000 0.000000 0.000000 0.000000 -0.000000 1.142930 89.221000 3.419340 90.823100 -5.306990 8.602920 15.735700 0.000005 -0.000001 106.570000 85.345100 -104.405000 8.984550 -0.406207 -0.000000 1.114590 2.528300 4.300770 16.377300 -0.000001 -0.000001 6.068240 -2.963640 0.670281 6.456720 -0.000001 -0.000000 1.315240 -4.399780 -2.823010 12.994200 -0.242716 4.980390 -89.047300 -2.649710 -70.203700 5.348090 -0.000007 -0.000001 -35.673800 -11.984600 -30.375000 24.328600 0.000019 0.000005 3.496280 15.278200 -13.069300 22.291600 -0.000001 0.000005 8.174790 5.310480 -0.216472 12.994500 -0.242716 -4.980390 88.814800 5.232190 -77.217600 -5.348130 -0.000001 -0.000004 -66.298100 24.525600 -4.068150 -24.328900 0.000322 -0.000009 -1.163300 -3.695280 -17.472500 -22.291500 -0.000108 -0.000004 21.107700 5.544470 -8.446740 -2.192480 -6.469440 -0.000000 -176.637000 -15.480100 -0.639253 39.081100 -0.000007 -0.000012 -0.169703 0.236913 35.614800 40.985400 -0.000006 -0.000013 1.541680 4.954130 -76.226600 11.754300 -0.000000 0.000003 -0.000075 -0.000805 -16.608600 -2.192510 6.469440 -0.000001 172.151000 16.223000 176.882000 -39.081100 -0.002282 -0.040193 0.018604 -0.019126 38.698300 -40.985400 0.000008 0.000006 5.360280 11.242800 -75.497300 -11.754300 -0.000006 -0.000006 -0.246848 -0.320833 -18.240900
0.000000 0.000000 0.000000 0.000000 0.000000 -0.000000 1.097600 90.075100 3.552980 90.491900 -6.337170 7.400790 15.735700 0.000005 -0.000001 108.041000 85.993700 -105.485000 8.984550 -0.406207 -0.000000 -0.193179 2.303420 5.112570 16.377300 -0.000001 -0.000001 6.680980 -2.749170 1.375850 6.456720 -0.000001 -0.000000 1.294050 -3.893740 -3.364290 12.994200 -0.242716 4.980390 -88.015300 -6.101080 -71.936200 5.348090 -0.000007 -0.000001 -25.126100 -29.575200 -31.298200 24.328600 0.000019 0.000005 1.721950 4.712560 -20.298300 22.291600 -0.000001 0.000005 11.140500 5.350420 -1.348980 12.994500 -0.242716 -4.980390 88.780600 5.264910 -76.939600 -5.348130 -0.000001 -0.000004 -63.288700 23.138200 -5.446240 -24.328900 0.000322 -0.000009 -0.971381 -3.326980 -16.269800 -22.291500 -0.000108 -0.000004 22.243000 5.542680 -8.373350 -2.192480 -6.469440 -0.000000 -176.826000 -14.916800 0.333253 39.081100 -0.000007 -0.000012 -0.139973 0.228926 31.443200 40.985400 -0.000006 -0.000013 0.936966 3.817230 -74.254500 11.754300 -0.000000 0.000003 -0.000054 -0.000601 -16.600900 -2.192510 6.469440 -0.000001 172.321000 18.114100 177.899000 -39.081100 -0.002282 -0.040193 0.010758 -0.010880 34.457300 -40.985400 0.000008 0.000006 5.988790 13.903200 -74.007500 -11.754300 -0.000006 -0.000006 -0.003171 -0.042520 -18.302400
0.000000 0.000000 0.000000 0.000000 0.000000 -0.000000 1.138140 90.416000 3.416630 89.880900 -7.337700 6.574050 15.735700 0.000005 -0.000001 102.832000 86.317700 -99.923400 8.984550 -0.406207 -0.000000 -0.614677 1.422750 5.822270 16.377300 -0.000001 -0.000001 5.918230 -2.308830 1.470050 6.456720 -0.000001 -0.000000 1.242870 -3.915890 -2.024810 12.994200 -0.242716 4.980390 -86.406500 -10.614300 -71.178000 5.348090 -0.000007 -0.000001 -10.331300 -40.494700 -26.991100 24.328600 0.000019 0.000005 -1.590240 -2.644660 -31.157800 22.291600 -0.000001 0.000005 17.422100 5.445740 -4.415220 12.994500 -0.242716 -4.980390 88.632900 5.949870 -77.035000 -5.348130 -0.000001 -0.000004 -58.801500 21.201500 -8.215110 -24.328900 0.000322 -0.000009 -0.909353 -3.338280 -15.230200 -22.291500 -0.000108 -0.000004 24.104300 5.517060 -7.246050 -2.192480 -6.469440 -0.000000 -176.644000 -14.626500 0.180560 39.081100 -0.000007 -0.000012 -0.135196 0.233831 30.035900 40.985400 -0.000006 -0.000013 0.608970 2.731370 -73.499700 11.754300 -0.000000 0.000003 -0.000074 -0.000795 -16.608200 -2.192510 6.469440 -0.000001 172.751000 19.706900 178.245000 -39.081100 -0.002282 -0.040193 0.004107 -0.001291 32.088800 -40.985400 0.000008 0.000006 6.506610 16.289800 -73.560500 -11.754300 -0.000006 -0.000006 -0.002652 -0.036604 -18.061600
